<svg xmlns:dc="http://purl.org/dc/elements/1.1/" xmlns:cc="http://creativecommons.org/ns#" xmlns:rdf="http://www.w3.org/1999/02/22-rdf-syntax-ns#" xmlns:svg="http://www.w3.org/2000/svg" xmlns="http://www.w3.org/2000/svg" xmlns:xlink="http://www.w3.org/1999/xlink" id="svg552912" viewBox="0 0 1024 768" height="768px" width="1024px" version="1.1">
  <metadata id="metadata552918">
    <rdf:rdf>
      <cc:work rdf:about="">
        <dc:format>image/svg+xml</dc:format>
        <dc:type rdf:resource="http://purl.org/dc/dcmitype/StillImage"></dc:type>
      </cc:work>
    </rdf:rdf>
  </metadata>
  <defs id="defs552916"></defs>
  <linearGradient spreadMethod="pad" y2="30%" x2="-10%" y1="120%" x1="30%" id="3d_gradient2-logo-57402df1-4996-40fb-9d84-7bfdec6c6264">
    <stop id="stop552893" stop-opacity="1" stop-color="#ffffff" offset="0%"></stop>
    <stop id="stop552895" stop-opacity="1" stop-color="#000000" offset="100%"></stop>
  </linearGradient>
  <linearGradient gradientTransform="rotate(-30)" spreadMethod="pad" y2="30%" x2="-10%" y1="120%" x1="30%" id="3d_gradient3-logo-57402df1-4996-40fb-9d84-7bfdec6c6264">
    <stop id="stop552898" stop-opacity="1" stop-color="#ffffff" offset="0%"></stop>
    <stop id="stop552900" stop-opacity="1" stop-color="#cccccc" offset="50%"></stop>
    <stop id="stop552902" stop-opacity="1" stop-color="#000000" offset="100%"></stop>
  </linearGradient>
  <g id="logo-group">
    <image xlink:href="" id="container" x="272" y="144" width="480" height="480" style="display: none;" transform="translate(0 0)"></image>
    <g id="logo-center" transform="translate(94.85962111111104 0)">
      <image xlink:href="" id="icon_container" x="0" y="0" style="display: none;"></image>
      <g id="slogan" style="font-style:normal;font-weight:800;font-size:32px;line-height:1;font-family:'Montserrat ExtraBold Alt1';font-variant-ligatures:none;text-align:center;text-anchor:middle" transform="translate(0 0)"></g>
      <g id="title" style="font-style:normal;font-weight:800;font-size:72px;line-height:1;font-family:'Montserrat ExtraBold Alt1';font-variant-ligatures:none;text-align:center;text-anchor:middle" transform="translate(0 0)">
        <path id="path552921" style="font-style:normal;font-weight:800;font-size:72px;line-height:1;font-family:'Montserrat ExtraBold Alt1';font-variant-ligatures:none;text-align:center;text-anchor:middle" d="m 290.08475,-50.4 h -15.408 l 14.328,33.696 7.704,-17.64 z m 27.648,0 -13.968,32.832 -7.56,17.568 h 14.04 l 21.6,-50.4 z" stroke-width="0" stroke-linejoin="miter" stroke-miterlimit="2" fill="#dad6ca" stroke="#dad6ca" transform="translate(0 321.792) translate(50 23.007999999999996) scale(1.5555555555555556) translate(-274.67675 50.4)"></path>
        <path id="path552923" style="font-style:normal;font-weight:800;font-size:72px;line-height:1;font-family:'Montserrat ExtraBold Alt1';font-variant-ligatures:none;text-align:center;text-anchor:middle" d="m 344.96225,-2.376 c 4.248,2.304 9.072,3.384 14.4,3.384 5.328,0 10.08,-1.08 14.328,-3.384 4.248,-2.232 7.56,-5.328 10.008,-9.36 2.448,-3.96 3.672,-8.424 3.672,-13.464 0,-4.968 -1.224,-9.432 -3.672,-13.464 -2.448,-3.96 -5.76,-7.056 -10.008,-9.36 -4.248,-2.232 -9,-3.384 -14.328,-3.384 -5.328,0 -10.152,1.152 -14.4,3.384 -4.248,2.304 -7.56,5.4 -10.008,9.36 -2.448,4.032 -3.6,8.496 -3.6,13.464 0,5.04 1.152,9.504 3.6,13.464 2.448,4.032 5.76,7.128 10.008,9.36 z m 21.312,-10.224 c -2.088,1.224 -4.392,1.8 -6.912,1.8 -2.592,0 -4.896,-0.576 -6.912,-1.8 -2.088,-1.152 -3.744,-2.88 -4.896,-5.04 -1.224,-2.16 -1.8,-4.68 -1.8,-7.56 0,-2.808 0.576,-5.328 1.8,-7.488 1.152,-2.16 2.808,-3.888 4.896,-5.112 2.016,-1.152 4.32,-1.8 6.912,-1.8 2.52,0 4.824,0.648 6.912,1.8 2.016,1.224 3.672,2.952 4.896,5.112 1.152,2.16 1.8,4.68 1.8,7.488 0,2.88 -0.648,5.4 -1.8,7.56 -1.224,2.16 -2.88,3.888 -4.896,5.04 z" stroke-width="0" stroke-linejoin="miter" stroke-miterlimit="2" fill="#dad6ca" stroke="#dad6ca" transform="translate(0 321.792) translate(138.1649999999999 21.439999999999998) scale(1.5555555555555556) translate(-331.35425 51.408)"></path>
        <path id="path552925" style="font-style:normal;font-weight:800;font-size:72px;line-height:1;font-family:'Montserrat ExtraBold Alt1';font-variant-ligatures:none;text-align:center;text-anchor:middle" d="M 394.83688,-50.4 V 0 h 38.30399 v -11.304 h -24.048 V -50.4 Z" stroke-width="0" stroke-linejoin="miter" stroke-miterlimit="2" fill="#dad6ca" stroke="#dad6ca" transform="translate(0 321.792) translate(236.91575777777769 23.007999999999996) scale(1.5555555555555556) translate(-394.83688 50.4)"></path>
        <path id="path552927" style="font-style:normal;font-weight:800;font-size:72px;line-height:1;font-family:'Montserrat ExtraBold Alt1';font-variant-ligatures:none;text-align:center;text-anchor:middle" d="m 443.90937,-5.112 c 4.176,4.104 10.008,6.12 17.496,6.12 7.488,0 13.248,-2.016 17.42401,-6.12 4.176,-4.032 6.26399,-9.864 6.26399,-17.352 V -50.4 h -14.03999 v 27.504 c 0,8.064 -3.16801,12.096 -9.50401,12.096 -6.408,0 -9.576,-4.032 -9.576,-12.096 V -50.4 h -14.256 v 27.936 c 0,7.488 2.01601,13.32 6.192,17.352 z" stroke-width="0" stroke-linejoin="miter" stroke-miterlimit="2" fill="#dad6ca" stroke="#dad6ca" transform="translate(0 321.792) translate(303.6187422222222 23.007999999999996) scale(1.5555555555555556) translate(-437.71737 50.4)"></path>
        <path id="path552929" style="font-style:normal;font-weight:800;font-size:72px;line-height:1;font-family:'Montserrat ExtraBold Alt1';font-variant-ligatures:none;text-align:center;text-anchor:middle" d="M 504.56488,-39.096 V 0 h 14.25599 v -39.096 h 15.40801 V -50.4 h -45.14401 v 11.304 z" stroke-width="0" stroke-linejoin="miter" stroke-miterlimit="2" fill="#919191" stroke="#919191" transform="translate(0 321.792) translate(383.52374222222227 23.007999999999996) scale(1.5555555555555556) translate(-489.08487 50.4)"></path>
        <path id="path552931" style="font-style:normal;font-weight:800;font-size:72px;line-height:1;font-family:'Montserrat ExtraBold Alt1';font-variant-ligatures:none;text-align:center;text-anchor:middle" d="m 544.45625,-5.112 c 4.176,4.104 10.008,6.12 17.496,6.12 7.488,0 13.248,-2.016 17.424,-6.12 4.176,-4.032 6.264,-9.864 6.264,-17.352 V -50.4 h -14.04 v 27.504 c 0,8.064 -3.168,12.096 -9.504,12.096 -6.408,0 -9.576,-4.032 -9.576,-12.096 V -50.4 h -14.256 v 27.936 c 0,7.488 2.016,13.32 6.192,17.352 z" stroke-width="0" stroke-linejoin="miter" stroke-miterlimit="2" fill="#919191" stroke="#919191" transform="translate(0 321.792) translate(460.0249999999999 23.007999999999996) scale(1.5555555555555556) translate(-538.26425 50.4)"></path>
        <path id="path552933" style="font-style:normal;font-weight:800;font-size:72px;line-height:1;font-family:'Montserrat ExtraBold Alt1';font-variant-ligatures:none;text-align:center;text-anchor:middle" d="M 605.11175,-39.096 V 0 h 14.256 v -39.096 h 15.408 V -50.4 h -45.144 v 11.304 z" stroke-width="0" stroke-linejoin="miter" stroke-miterlimit="2" fill="#919191" stroke="#919191" transform="translate(0 321.792) translate(539.9300000000001 23.007999999999996) scale(1.5555555555555556) translate(-589.63175 50.4)"></path>
        <path id="path552935" style="font-style:normal;font-weight:800;font-size:72px;line-height:1;font-family:'Montserrat ExtraBold Alt1';font-variant-ligatures:none;text-align:center;text-anchor:middle" d="m 650.39975,-2.376 c 4.248,2.304 9.072,3.384 14.4,3.384 5.328,0 10.08,-1.08 14.328,-3.384 4.248,-2.232 7.56,-5.328 10.008,-9.36 2.448,-3.96 3.672,-8.424 3.672,-13.464 0,-4.968 -1.224,-9.432 -3.672,-13.464 -2.448,-3.96 -5.76,-7.056 -10.008,-9.36 -4.248,-2.232 -9,-3.384 -14.328,-3.384 -5.328,0 -10.152,1.152 -14.4,3.384 -4.248,2.304 -7.56,5.4 -10.008,9.36 -2.448,4.032 -3.6,8.496 -3.6,13.464 0,5.04 1.152,9.504 3.6,13.464 2.448,4.032 5.76,7.128 10.008,9.36 z m 21.312,-10.224 c -2.088,1.224 -4.392,1.8 -6.912,1.8 -2.592,0 -4.896,-0.576 -6.912,-1.8 -2.088,-1.152 -3.744,-2.88 -4.896,-5.04 -1.224,-2.16 -1.8,-4.68 -1.8,-7.56 0,-2.808 0.576,-5.328 1.8,-7.488 1.152,-2.16 2.808,-3.888 4.896,-5.112 2.016,-1.152 4.32,-1.8 6.912,-1.8 2.52,0 4.824,0.648 6.912,1.8 2.016,1.224 3.672,2.952 4.896,5.112 1.152,2.16 1.8,4.68 1.8,7.488 0,2.88 -0.648,5.4 -1.8,7.56 -1.224,2.16 -2.88,3.888 -4.896,5.04 z" stroke-width="0" stroke-linejoin="miter" stroke-miterlimit="2" fill="#919191" stroke="#919191" transform="translate(0 321.792) translate(613.2900000000001 21.439999999999998) scale(1.5555555555555556) translate(-636.79175 51.408)"></path>
        <path id="path552937" style="font-style:normal;font-weight:800;font-size:72px;line-height:1;font-family:'Montserrat ExtraBold Alt1';font-variant-ligatures:none;text-align:center;text-anchor:middle" d="m 735.84237,-15.84 c 3.096,-1.512 5.54401,-3.6 7.272,-6.336 1.728,-2.736 2.592,-5.904 2.592,-9.576 0,-3.744 -0.93599,-7.056 -2.736,-9.864 -1.87199,-2.808 -4.46399,-4.968 -7.77599,-6.48 -3.384,-1.512 -7.34401,-2.304 -11.88,-2.304 h -23.04001 v 11.232 h 22.176 c 2.88,0 5.112,0.648 6.62401,1.944 1.43999,1.296 2.23199,3.168 2.23199,5.472 0,2.376 -0.792,4.176 -2.23199,5.472 -1.51201,1.296 -3.74401,1.872 -6.62401,1.872 h -22.176 V 0 h 14.25601 v -13.392 h 7.77599 L 731.45037,0 h 15.26401 z" stroke-width="0" stroke-linejoin="miter" stroke-miterlimit="2" fill="#919191" stroke="#919191" transform="translate(0 321.792) translate(712.0407422222223 23.007999999999996) scale(1.5555555555555556) translate(-700.27437 50.4)"></path>
      </g>
      <image xlink:href="" id="icon" x="0" y="0" style="display: none;"></image>
    </g>
  </g>
</svg>